<?xml version="1.0" standalone="no"?>
<!DOCTYPE svg PUBLIC "-//W3C//DTD SVG 20010904//EN"
 "http://www.w3.org/TR/2001/REC-SVG-20010904/DTD/svg10.dtd">
<svg version="1.0" xmlns="http://www.w3.org/2000/svg"
 width="252.000000pt" height="252.000000pt" viewBox="0 0 252.000000 252.000000"
 preserveAspectRatio="xMidYMid meet">
<metadata>
Created by potrace 1.10, written by Peter Selinger 2001-2011
</metadata>
<g transform="translate(0.000000,252.000000) scale(0.100000,-0.100000)"
fill="#000000" stroke="none">
<path d="M915 2463 c-107 -20 -260 -60 -337 -89 -199 -74 -258 -107 -258 -145
0 -23 46 -59 75 -59 86 0 165 -92 209 -241 23 -78 22 -248 -2 -315 -46 -132
-153 -220 -292 -240 -69 -10 -80 -25 -80 -108 0 -148 52 -352 130 -507 112
-222 363 -467 637 -620 138 -77 227 -119 253 -119 52 0 328 156 481 271 72 54
217 191 266 251 70 86 156 235 196 343 43 117 77 285 77 386 0 78 -12 93 -80
103 -139 20 -235 95 -289 226 -23 56 -26 270 -5 334 49 145 98 206 189 234 59
19 60 19 63 59 l3 40 -63 30 c-90 43 -191 82 -278 106 -238 68 -309 77 -581
76 -159 -1 -259 -6 -314 -16z m635 -119 c178 -33 379 -94 380 -117 0 -4 -16
-25 -36 -45 -20 -20 -40 -46 -45 -57 -5 -11 -13 -27 -18 -35 -12 -21 -36 -84
-55 -151 -22 -75 -22 -267 0 -335 45 -139 126 -239 249 -305 17 -9 46 -19 66
-23 53 -9 63 -26 55 -88 -25 -184 -85 -346 -185 -498 -90 -138 -319 -337 -511
-444 -19 -11 -53 -30 -75 -42 -22 -13 -59 -32 -82 -44 l-43 -22 -42 22 c-24
12 -61 31 -83 44 -22 12 -56 31 -75 42 -40 21 -182 115 -190 124 -3 3 -33 27
-67 53 -227 173 -369 402 -427 690 -27 132 -22 151 45 163 98 19 229 133 280
244 39 85 49 135 49 245 -1 173 -55 338 -140 423 l-41 41 23 15 c35 22 210 74
328 97 157 30 480 32 640 3z"/>
</g>
</svg>
